<?xml version="1.0" encoding="utf-8"?>
<!-- Generator: Adobe Illustrator 25.2.3, SVG Export Plug-In . SVG Version: 6.00 Build 0)  -->
<svg version="1.1" id="Capa_1" xmlns="http://www.w3.org/2000/svg" xmlns:xlink="http://www.w3.org/1999/xlink" x="0px" y="0px"
	 viewBox="0 0 45.02 45.02" style="enable-background:new 0 0 45.02 45.02;" xml:space="preserve">
<style type="text/css">
	.st0{fill:#FFFFFF;}
</style>
<g>
	<path class="st0" d="M22.78,25.39c4.19-4.19,8.22-8.23,12.34-12.34c-0.28-0.03-0.52-0.07-0.75-0.07c-1.58-0.01-3.16,0.01-4.74-0.01
		c-1.26-0.01-1.76-0.51-1.79-1.75c-0.01-0.79-0.02-1.58,0-2.37c0.04-1.03,0.56-1.57,1.6-1.58c4.65-0.02,9.31-0.02,13.96,0
		c1.08,0,1.59,0.56,1.6,1.66c0.01,4.63,0.01,9.25,0,13.88c0,1.09-0.53,1.61-1.61,1.64c-0.79,0.02-1.58,0.01-2.37,0
		c-1.16-0.02-1.67-0.51-1.67-1.65c-0.01-1.84,0-3.68,0-5.74c-0.35,0.32-0.58,0.5-0.79,0.71c-4.39,4.39-8.78,8.78-13.17,13.16
		c-1.73,1.73-3.18,1.73-4.9,0c-1.57-1.57-3.13-3.16-4.77-4.81c-0.26,0.25-0.5,0.45-0.71,0.67c-3.4,3.39-6.79,6.79-10.19,10.18
		c-1.05,1.05-1.68,1.05-2.73,0c-0.52-0.52-1.05-1.03-1.55-1.56c-0.7-0.74-0.74-1.45-0.03-2.16c4.38-4.4,8.76-8.79,13.17-13.16
		c1.19-1.18,2.85-1.12,4.09,0.08c1.51,1.47,2.99,2.97,4.47,4.47C22.46,24.86,22.62,25.16,22.78,25.39z"/>
</g>
</svg>
