<?xml version="1.0" encoding="utf-8"?>
<!-- Generator: Adobe Illustrator 25.2.3, SVG Export Plug-In . SVG Version: 6.00 Build 0)  -->
<svg version="1.1" id="Capa_1" xmlns="http://www.w3.org/2000/svg" xmlns:xlink="http://www.w3.org/1999/xlink" x="0px" y="0px"
	 viewBox="0 0 45.02 45.02" style="enable-background:new 0 0 45.02 45.02;" xml:space="preserve">
<style type="text/css">
	.st0{fill:#D8D9E9;}
</style>
<g>
	<g>
		<g>
			<g>
				<path class="st0" d="M24.28,15.9c0,0.11,0,0.29,0,0.46c0,5.49,0,10.99,0,16.48c0,0.32-0.01,0.66-0.11,0.96
					c-0.24,0.77-1.01,1.26-1.81,1.19c-0.8-0.07-1.5-0.73-1.61-1.52c-0.04-0.27-0.03-0.55-0.03-0.83c0-5.43,0-10.86,0-16.28
					c0-0.18,0-0.35,0-0.55c-1.7,2.25-3.86,4-5.75,6c-0.42,0.45-0.94,0.71-1.56,0.66c-0.67-0.05-1.17-0.37-1.44-1
					c-0.27-0.62-0.2-1.21,0.18-1.76c0.12-0.17,0.27-0.32,0.42-0.47c2.81-2.82,5.63-5.63,8.45-8.45c1.04-1.04,1.98-1.04,3.03,0
					c2.84,2.84,5.67,5.68,8.52,8.51c0.45,0.45,0.73,0.96,0.65,1.61c-0.08,0.66-0.42,1.16-1.05,1.41c-0.66,0.27-1.27,0.17-1.84-0.26
					c-0.15-0.12-0.29-0.26-0.43-0.4c-1.26-1.26-2.54-2.52-3.79-3.8C25.47,17.24,24.88,16.55,24.28,15.9z"/>
			</g>
		</g>
		<g>
			<path class="st0" d="M22.51,45.02C10.1,45.02,0,34.92,0,22.51S10.1,0,22.51,0c12.41,0,22.51,10.1,22.51,22.51
				S34.92,45.02,22.51,45.02z M22.51,3C11.75,3,3,11.75,3,22.51s8.75,19.5,19.5,19.5s19.5-8.75,19.5-19.5S33.26,3,22.51,3z"/>
		</g>
	</g>
</g>
</svg>
