<?xml version="1.0" encoding="utf-8"?>
<!-- Generator: Adobe Illustrator 25.2.3, SVG Export Plug-In . SVG Version: 6.00 Build 0)  -->
<svg version="1.1" id="Capa_1" xmlns="http://www.w3.org/2000/svg" xmlns:xlink="http://www.w3.org/1999/xlink" x="0px" y="0px"
	 viewBox="0 0 35.11 35.11" style="enable-background:new 0 0 35.11 35.11;" xml:space="preserve">
<g>
	<g>
		<path d="M24.99,19.55c-0.12,0-0.32,0-0.52,0c-6.17,0-12.35,0-18.52,0c-0.36,0-0.74-0.02-1.08-0.12C4,19.15,3.45,18.29,3.53,17.39
			c0.07-0.9,0.82-1.69,1.71-1.81c0.31-0.04,0.62-0.04,0.93-0.04c6.1,0,12.2,0,18.3,0c0.2,0,0.4,0,0.62,0
			c-2.53-1.91-4.49-4.34-6.75-6.46c-0.51-0.48-0.79-1.05-0.74-1.75c0.06-0.75,0.42-1.31,1.12-1.62c0.69-0.31,1.36-0.23,1.97,0.2
			c0.19,0.13,0.36,0.31,0.53,0.47c3.17,3.16,6.33,6.33,9.49,9.49c1.17,1.17,1.17,2.23,0,3.4c-3.19,3.19-6.38,6.38-9.57,9.57
			c-0.51,0.51-1.08,0.82-1.81,0.73c-0.74-0.09-1.3-0.47-1.59-1.18c-0.3-0.74-0.19-1.43,0.29-2.06c0.13-0.17,0.29-0.32,0.45-0.48
			c1.42-1.42,2.83-2.85,4.27-4.26C23.48,20.88,24.25,20.22,24.99,19.55z"/>
	</g>
</g>
</svg>
