<?xml version="1.0" encoding="utf-8"?>
<!-- Generator: Adobe Illustrator 25.2.3, SVG Export Plug-In . SVG Version: 6.00 Build 0)  -->
<svg version="1.1" id="Capa_1" xmlns="http://www.w3.org/2000/svg" xmlns:xlink="http://www.w3.org/1999/xlink" x="0px" y="0px"
	 viewBox="0 0 1045.11 1438.44" style="enable-background:new 0 0 1045.11 1438.44;" xml:space="preserve">
<style type="text/css">
	.st0{fill:#DCE0E2;}
</style>
<path class="st0" d="M971.06,1438.44H74.05c-40.9,0-74.05-33.15-74.05-74.05V74.05C0,33.15,33.15,0,74.05,0h356.36
	c10.28,0,20.25,3.53,28.24,10l0,0c7.99,6.47,17.96,10,28.24,10h71.07c10.12,0,19.93-3.42,27.86-9.7l0.76-0.6
	C594.5,3.42,604.32,0,614.43,0h356.63c40.9,0,74.05,33.15,74.05,74.05v1290.34C1045.11,1405.29,1011.96,1438.44,971.06,1438.44z"/>
</svg>
