<?xml version="1.0" encoding="utf-8"?>
<!-- Generator: Adobe Illustrator 25.2.3, SVG Export Plug-In . SVG Version: 6.00 Build 0)  -->
<svg version="1.1" id="Capa_1" xmlns="http://www.w3.org/2000/svg" xmlns:xlink="http://www.w3.org/1999/xlink" x="0px" y="0px"
	 viewBox="0 0 35.11 35.11" style="enable-background:new 0 0 35.11 35.11;" xml:space="preserve">
<g>
	<g>
		<path d="M30.63,27.59c0.55,1.84,0.2,3.23-1.04,4.2c-1.1,0.85-2.63,0.99-3.82,0.27c-1.67-1.03-2.05-2.56-1.5-4.41
			c-2.03,0-4.01,0-6.05,0c0.55,1.8,0.2,3.33-1.42,4.36c-1.22,0.77-2.52,0.73-3.7-0.09c-1.51-1.05-1.8-2.54-1.26-4.3
			c-0.42,0-0.79,0-1.16,0c-1.79-0.02-3.11-1.16-3.26-2.78c-0.15-1.72,0.89-3.01,2.69-3.37c0.06-0.01,0.12-0.04,0.22-0.08
			c-0.67-2.49-1.33-4.98-2-7.46c-0.78-2.89-1.57-5.77-2.32-8.67c-0.15-0.58-0.42-0.77-1-0.74C4.05,4.57,3.06,4.54,2.08,4.53
			c-0.82,0-1.28-0.36-1.3-0.98c-0.01-0.62,0.46-0.99,1.26-1c1.09,0,2.19-0.01,3.28,0C6.67,2.57,7.49,3.2,7.85,4.49
			c0.37,1.36,0.74,2.73,1.12,4.16c2.06,0,4.09-0.01,6.12,0c5.66,0.02,11.33,0.05,16.99,0.08c1.69,0.01,2.54,1.05,2.17,2.69
			c-0.75,3.3-1.51,6.6-2.27,9.9c-0.33,1.4-1.22,2.11-2.67,2.11c-6.17,0-12.33,0-18.5,0c-0.85,0-1.28,0.29-1.37,0.9
			c-0.1,0.64,0.23,1.13,0.86,1.25c0.25,0.05,0.52,0.05,0.78,0.05c6.25,0,12.51,0,18.76,0.01c0.32,0,0.68,0.02,0.94,0.17
			C31.44,26.19,31.35,26.93,30.63,27.59z M14.52,15.07c-0.16-1.18-0.3-2.28-0.46-3.37c-0.15-1.07-0.16-1.07-1.24-1.07
			c-1.08,0-2.15,0-3.32,0c0.39,1.47,0.75,2.83,1.13,4.19c0.03,0.11,0.2,0.25,0.31,0.25C12.12,15.07,13.29,15.07,14.52,15.07z
			 M20.23,15.05c0-1.46,0-2.89,0-4.37c-1.43,0-2.82,0-4.3,0c0.2,1.48,0.39,2.92,0.58,4.37C17.77,15.05,18.95,15.05,20.23,15.05z
			 M22.28,15.07c0.78,0,1.55,0,2.33,0c1.35,0,1.36,0,1.55-1.31c0.15-1,0.26-2.01,0.39-3.03c-1.48,0-2.86,0-4.27,0
			C22.28,12.17,22.28,13.56,22.28,15.07z M28.55,10.73c-0.19,1.46-0.37,2.87-0.56,4.34c1.08,0,2.06,0.02,3.04-0.02
			c0.15,0,0.39-0.2,0.43-0.35c0.33-1.31,0.62-2.62,0.93-3.97C31.1,10.73,29.87,10.73,28.55,10.73z M20.22,21.43c0-1.47,0-2.9,0-4.33
			c-1.17,0-2.28,0-3.44,0c0.2,1.48,0.39,2.89,0.58,4.33C18.33,21.43,19.24,21.43,20.22,21.43z M11.24,17.09
			c0.37,1.35,0.71,2.66,1.09,3.94c0.05,0.18,0.33,0.39,0.51,0.4c0.82,0.04,1.64,0.02,2.53,0.02c-0.2-1.5-0.39-2.92-0.58-4.37
			C13.6,17.09,12.46,17.09,11.24,17.09z M22.29,21.42c0.99,0,1.91,0,2.86,0c0.19-1.46,0.38-2.88,0.57-4.33c-1.18,0-2.29,0-3.43,0
			C22.29,18.54,22.29,19.95,22.29,21.42z M27.14,21.46c0.82,0,1.56,0.03,2.3-0.02c0.19-0.01,0.5-0.2,0.54-0.37
			c0.34-1.3,0.62-2.62,0.93-3.98c-1.11,0-2.15,0-3.2,0C27.52,18.55,27.34,19.95,27.14,21.46z M27.47,27.61
			c-0.81,0-1.47,0.65-1.47,1.45c-0.01,0.8,0.65,1.46,1.45,1.47c0.84,0.01,1.52-0.66,1.51-1.48C28.94,28.25,28.28,27.61,27.47,27.61z
			 M15.05,30.53c0.81-0.01,1.46-0.65,1.46-1.46c0-0.83-0.68-1.48-1.52-1.46c-0.81,0.02-1.44,0.68-1.43,1.49
			C13.58,29.91,14.24,30.54,15.05,30.53z"/>
	</g>
</g>
</svg>
