<?xml version="1.0" encoding="utf-8"?>
<!-- Generator: Adobe Illustrator 25.2.3, SVG Export Plug-In . SVG Version: 6.00 Build 0)  -->
<svg version="1.1" id="Capa_1" xmlns="http://www.w3.org/2000/svg" xmlns:xlink="http://www.w3.org/1999/xlink" x="0px" y="0px"
	 viewBox="0 0 35.11 35.11" style="enable-background:new 0 0 35.11 35.11;" xml:space="preserve">
<g>
	<g>
		<path d="M10.63,6.74c0.03-0.48,0.04-0.85,0.08-1.22c0.14-1.49,1.18-2.61,2.66-2.65c2.75-0.07,5.5-0.08,8.25-0.01
			c1.63,0.04,2.66,1.17,2.8,2.81c0.03,0.32,0.03,0.65,0.05,1.08c0.27,0,0.53,0,0.78,0c2.55,0,5.11,0,7.66,0
			c1.15,0,1.42,0.27,1.42,1.44c0,6.92,0,13.84,0,20.76c0,2.19-1.16,3.36-3.35,3.36c-8.95,0.01-17.9,0.01-26.85,0
			c-2.19,0-3.35-1.18-3.35-3.36c0-6.92,0-13.84,0-20.76c0-1.15,0.28-1.43,1.43-1.43c2.53,0,5.06,0,7.6,0
			C10.06,6.74,10.32,6.74,10.63,6.74z M2.88,14.19c-0.04,0-0.09,0-0.13,0c0,0.13,0,0.26,0,0.38c0,4.82,0,9.65,0,14.47
			c0,0.96,0.32,1.28,1.31,1.28c8.99,0,17.99,0,26.98,0c1.01,0,1.31-0.32,1.31-1.35c0-4.78,0-9.56,0-14.34c0-0.15-0.02-0.3-0.03-0.45
			c-0.57,1.43-1.03,2.85-1.53,4.27c-0.43,1.23-1.31,1.94-2.63,2.02c-0.85,0.05-1.7,0.03-2.55,0.03c-1.02,0-2.04,0-3.11,0
			c-0.01,0.31-0.03,0.54-0.04,0.78c-0.04,0.84-0.34,1.18-1.15,1.18c-2.51,0.01-5.02,0.01-7.53,0c-0.79,0-1.11-0.34-1.15-1.12
			c-0.01-0.25,0-0.51,0-0.84c-0.32,0-0.56,0-0.79,0c-1.46,0-2.93,0.01-4.39,0c-1.76-0.01-2.7-0.69-3.26-2.36
			C3.75,16.83,3.32,15.51,2.88,14.19z M22.57,18.53c1.69,0,3.36,0,5.04,0c0.96,0,1.15-0.15,1.46-1.08c0.9-2.71,1.8-5.42,2.7-8.13
			c0.06-0.18,0.09-0.36,0.14-0.57c-9.6,0-19.15,0-28.71,0C3.22,8.88,3.22,8.94,3.24,9c0.97,2.92,1.94,5.83,2.91,8.75
			c0.19,0.56,0.58,0.78,1.14,0.78c1.03,0,2.05,0,3.08,0c0.74,0,1.47,0,2.21,0c0.03-0.2,0.05-0.3,0.05-0.41
			c0.07-1.41,0.22-1.56,1.64-1.56c2.07,0,4.15,0,6.22,0c1.82,0,1.82,0,2.01,1.8C22.51,18.39,22.52,18.41,22.57,18.53z M12.68,6.68
			c3.29,0,6.52,0,9.76,0c0.01-0.21,0.03-0.36,0.03-0.52c0.01-1.08-0.27-1.37-1.34-1.38c-0.48,0-0.96,0-1.44,0c-1.9,0-3.79,0-5.69,0
			c-1.07,0-1.35,0.3-1.34,1.38C12.65,6.31,12.66,6.47,12.68,6.68z M20.46,20.46c0-0.64,0-1.24,0-1.87c-1.95,0-3.86,0-5.8,0
			c0,0.64,0,1.24,0,1.87C16.6,20.46,18.51,20.46,20.46,20.46z"/>
	</g>
</g>
</svg>
